# xmcd
#
# Track frame offsets: 
#        150
#        7198
#        22374
#        34967
#        45794
#        55586
#        67540
#        77246
#        87790
#        103126
#        115718
#        126819
#        141654
#
# Disc length: 2017 seconds
#
# Revision: 0
# Processed by: cddbd v1.5.2PL0 Copyright (c) Steve Scherf et al.
# Submitted via: ExactAudioCopyFreeDBPlugin 1.0
#
DISCID=a907df0d
DTITLE=Various Artist - Top 40 Country Songs Volume 1 Disc 1
DYEAR=2012
DGENRE=Country
TTITLE0=Faron Young - Goin' Steady
TTITLE1=Ferlin Husky - Little Tom
TTITLE2=Kitty Wells - Makin' Believe
TTITLE3=Carl Perkins - Dixie Fried
TTITLE4=Don Gibson - Sweet Dreams of You
TTITLE5=Jim Reeves - Am I Losing You (Live)
TTITLE6=Don Gibson - Who Cares
TTITLE7=Don Gibson - Far Far Away
TTITLE8=Tex Ritter - Hillbilly Heaven
TTITLE9=Kitty Wells - We Missed You
TTITLE10=Don Gibson - I Can Mend Your Broken Heart
TTITLE11=Dave Dudley - Truck Drivin' Son of a Gun
TTITLE12=Porter Wagoner - Cold Hard Facts of Life
EXTD=
EXTT0=
EXTT1=
EXTT2=
EXTT3=
EXTT4=
EXTT5=
EXTT6=
EXTT7=
EXTT8=
EXTT9=
EXTT10=
EXTT11=
EXTT12=
PLAYORDER=
